<svg width="37" height="34" viewBox="0 0 37 34" fill="none" xmlns="http://www.w3.org/2000/svg">
<g clip-path="url(#clip0_124_835)">
<path d="M29 26.8652C29.1208 26.5833 16.4736 17.0374 16.4736 17.0374C14.9028 15.8694 14.057 15.8694 12.4861 17.0374C12.4861 17.0374 -0.120825 26.543 8.60094e-06 26.8652C0.120842 27.1471 0.281953 27.4291 0.443064 27.6708C0.52362 27.7916 0.644453 27.8721 0.725009 27.9527H0.765286C1.16806 28.3152 1.69168 28.5569 2.25556 28.6374H2.33612C2.41668 28.6374 2.49723 28.6777 2.57779 28.6777H26.4222C27.5903 28.6374 28.5972 27.9124 29 26.8652Z" fill="#F0EDDB" stroke="white"/>
<path d="M14.5 15.95L0.0402832 26.7444V11.3986C0.0402832 9.90828 1.24862 8.69995 2.73889 8.69995H26.2208C27.7111 8.69995 28.9195 9.90828 28.9195 11.3986V26.7444L14.5 15.95Z" fill="#F8F5E6" stroke="white"/>
<path d="M0.241638 10.4722L12.5666 20.1388C14.1375 21.3069 14.943 21.3069 16.4736 20.1388L28.7986 10.4722C28.5972 10.0694 28.275 9.78746 27.9125 9.54579L28.0736 9.42496C27.6708 9.06246 27.1472 8.82079 26.543 8.74023H2.49719C1.89303 8.82079 1.36942 9.06246 0.966638 9.42496L1.12775 9.54579C0.765249 9.78746 0.443027 10.1097 0.241638 10.4722Z" fill="#D8BD1C" stroke="white"/>
<path d="M0.241656 10.5125C0.120823 10.7944 12.5667 20.1791 12.5667 20.1791C14.1375 21.3472 14.943 21.3472 16.4736 20.1791C16.4736 20.1791 28.8792 10.7944 28.7986 10.5125C28.6778 10.2305 28.5569 9.94857 28.3555 9.7069C28.275 9.62635 28.1944 9.50551 28.0736 9.42496H28.0333C27.6305 9.06246 27.1069 8.82079 26.543 8.78051H26.4625C26.3819 8.78051 26.3014 8.74023 26.2208 8.74023H2.73888C1.6111 8.74023 0.604156 9.46523 0.241656 10.5125C0.201378 10.4722 0.241656 10.4722 0.241656 10.5125Z" fill="#FFFBED"/>
<path d="M0.241656 10.5125C0.120823 10.7944 12.5667 20.1791 12.5667 20.1791C14.1375 21.3472 14.943 21.3472 16.4736 20.1791C16.4736 20.1791 28.8792 10.7944 28.7986 10.5125C28.6778 10.2305 28.5569 9.94857 28.3555 9.7069C28.275 9.62635 28.1944 9.50551 28.0736 9.42496H28.0333C27.6305 9.06246 27.1069 8.82079 26.543 8.78051H26.4625C26.3819 8.78051 26.3014 8.74023 26.2208 8.74023H2.73888C1.6111 8.74023 0.604156 9.46523 0.241656 10.5125C0.241656 10.4722 0.201378 10.4722 0.241656 10.5125V10.5125Z" stroke="white"/>
<path d="M11.6 3.42364C10.5528 2.4167 8.9014 2.4167 7.85417 3.42364C7.73334 3.54448 7.65278 3.62503 7.57223 3.74587C7.49167 3.62503 7.41112 3.5042 7.29028 3.42364C6.16251 2.29587 4.22917 2.4167 3.26251 3.78614C2.69862 4.55142 2.61806 5.59864 3.02084 6.44448C3.26251 6.96809 3.58473 7.33059 3.98751 7.57226L7.33056 10.2709C7.49167 10.3917 7.73334 10.3917 7.89445 10.2709L11.2375 7.57226C11.5195 7.41114 11.7611 7.16948 11.9625 6.88753C12.6875 5.84031 12.5264 4.35003 11.6 3.42364ZM20.1792 0.684756C19.7361 0.2417 19.0111 0.2417 18.5681 0.684756C18.5681 0.725034 18.5278 0.765311 18.4875 0.805589C18.4472 0.765311 18.407 0.725034 18.3667 0.644478C17.8833 0.161145 17.0375 0.201422 16.6347 0.805589C16.4333 1.08753 16.3931 1.49031 16.5139 1.81253C16.5945 2.0542 16.7556 2.25559 16.957 2.37642L18.2861 3.46392C18.407 3.54448 18.5681 3.54448 18.6889 3.46392L20.1792 2.25559C20.6222 1.85281 20.6222 1.12781 20.1792 0.684756Z" fill="#FFA5A0" stroke="white"/>
<path d="M23.7639 7.33045C22.9584 6.52489 21.6292 6.52489 20.8236 7.33045C20.7431 7.411 20.6625 7.49156 20.6222 7.57212C20.5417 7.49156 20.5014 7.411 20.4209 7.29017C19.6556 6.52489 18.407 6.48462 17.6014 7.16934C16.7959 7.85406 16.675 9.06239 17.2389 9.90823C17.4 10.1499 17.6014 10.3513 17.8028 10.4721L20.3806 12.5666C20.5417 12.6874 20.7431 12.6874 20.9042 12.5666L23.8042 10.1902C24.5695 9.46517 24.5695 8.136 23.7639 7.33045Z" fill="#E2BDFF" stroke="white"/>
</g>
<defs>
<clipPath id="clip0_124_835">
<rect width="29" height="29" fill="white"/>
</clipPath>
</defs>
</svg>
