<svg width="242" height="36" viewBox="0 0 242 36" fill="none" xmlns="http://www.w3.org/2000/svg">
<rect x="0.75" y="0.75" width="240.5" height="34.5" rx="11.25" fill="#F2F2F2" stroke="#FC4062" stroke-width="1.5"/>
<path d="M102.22 21.34C102.012 21.564 101.744 21.756 101.416 21.916C101.096 22.068 100.756 22.16 100.396 22.192C100.204 22.208 99.988 22.208 99.748 22.192C99.516 22.176 99.288 22.148 99.064 22.108C98.848 22.076 98.648 22.04 98.464 22C98.288 21.952 98.16 21.908 98.08 21.868C97.96 21.812 97.888 21.772 97.864 21.748C97.84 21.716 97.836 21.656 97.852 21.568L97.936 20.68C97.944 20.616 97.964 20.576 97.996 20.56C98.028 20.544 98.088 20.556 98.176 20.596C98.272 20.636 98.408 20.684 98.584 20.74C98.76 20.788 98.956 20.832 99.172 20.872C99.388 20.904 99.604 20.924 99.82 20.932C100.044 20.94 100.244 20.924 100.42 20.884C100.652 20.828 100.84 20.756 100.984 20.668C101.128 20.572 101.24 20.464 101.32 20.344C101.408 20.216 101.468 20.08 101.5 19.936C101.532 19.784 101.548 19.628 101.548 19.468C101.548 19.316 101.448 19.108 101.248 18.844C101.056 18.58 100.776 18.34 100.408 18.124C99.96 17.86 99.572 17.616 99.244 17.392C98.916 17.16 98.644 16.932 98.428 16.708C98.22 16.484 98.064 16.252 97.96 16.012C97.856 15.772 97.804 15.508 97.804 15.22C97.804 14.892 97.872 14.58 98.008 14.284C98.152 13.98 98.344 13.716 98.584 13.492C98.832 13.268 99.124 13.092 99.46 12.964C99.804 12.828 100.18 12.76 100.588 12.76C101.004 12.76 101.344 12.788 101.608 12.844C101.88 12.892 102.112 12.952 102.304 13.024C102.392 13.056 102.444 13.092 102.46 13.132C102.484 13.164 102.488 13.208 102.472 13.264L102.316 14.032C102.3 14.12 102.272 14.18 102.232 14.212C102.2 14.244 102.14 14.244 102.052 14.212C101.932 14.172 101.8 14.136 101.656 14.104C101.512 14.064 101.364 14.032 101.212 14.008C101.06 13.984 100.912 13.968 100.768 13.96C100.632 13.952 100.508 13.956 100.396 13.972C99.948 14.044 99.632 14.192 99.448 14.416C99.272 14.632 99.184 14.908 99.184 15.244C99.184 15.444 99.288 15.668 99.496 15.916C99.704 16.156 100.008 16.396 100.408 16.636C100.912 16.94 101.324 17.212 101.644 17.452C101.972 17.692 102.228 17.924 102.412 18.148C102.604 18.364 102.736 18.584 102.808 18.808C102.888 19.032 102.928 19.276 102.928 19.54C102.928 20.244 102.692 20.844 102.22 21.34ZM108.759 21.976C108.719 21.976 108.683 21.968 108.651 21.952C108.627 21.928 108.619 21.896 108.627 21.856V21.376C108.419 21.632 108.163 21.828 107.859 21.964C107.563 22.1 107.251 22.168 106.923 22.168C106.147 22.168 105.567 21.94 105.183 21.484C104.799 21.028 104.607 20.376 104.607 19.528V15.508C104.607 15.468 104.619 15.432 104.643 15.4C104.675 15.36 104.711 15.34 104.751 15.34H105.735C105.775 15.34 105.811 15.36 105.843 15.4C105.875 15.44 105.891 15.48 105.891 15.52V19.336C105.891 19.936 105.987 20.36 106.179 20.608C106.379 20.856 106.671 20.98 107.055 20.98C107.487 20.98 107.843 20.816 108.123 20.488C108.411 20.16 108.555 19.672 108.555 19.024V15.508C108.555 15.468 108.567 15.432 108.591 15.4C108.623 15.36 108.659 15.34 108.699 15.34H109.695C109.735 15.34 109.767 15.364 109.791 15.412C109.823 15.452 109.839 15.492 109.839 15.532V20.428C109.839 20.676 109.843 20.92 109.851 21.16C109.859 21.4 109.863 21.62 109.863 21.82C109.863 21.924 109.819 21.976 109.731 21.976H108.759ZM114.68 22.276C114.36 22.276 114.052 22.208 113.756 22.072C113.46 21.936 113.212 21.752 113.012 21.52V23.656C113.012 23.72 113.004 23.76 112.988 23.776C112.972 23.8 112.936 23.812 112.88 23.812H111.884C111.836 23.812 111.8 23.8 111.776 23.776C111.752 23.76 111.74 23.72 111.74 23.656V15.52C111.74 15.392 111.8 15.328 111.92 15.328H112.844C112.956 15.328 113.012 15.392 113.012 15.52V15.952C113.236 15.72 113.488 15.54 113.768 15.412C114.048 15.284 114.352 15.22 114.68 15.22C115.112 15.22 115.496 15.304 115.832 15.472C116.176 15.632 116.464 15.864 116.696 16.168C116.936 16.472 117.116 16.844 117.236 17.284C117.364 17.724 117.428 18.22 117.428 18.772C117.428 19.308 117.364 19.792 117.236 20.224C117.108 20.656 116.924 21.024 116.684 21.328C116.452 21.632 116.164 21.864 115.82 22.024C115.484 22.192 115.104 22.276 114.68 22.276ZM114.548 16.444C114.34 16.444 114.144 16.496 113.96 16.6C113.776 16.696 113.612 16.844 113.468 17.044C113.332 17.236 113.22 17.476 113.132 17.764C113.052 18.052 113.012 18.384 113.012 18.76C113.012 19.544 113.152 20.124 113.432 20.5C113.712 20.876 114.084 21.064 114.548 21.064C115.044 21.064 115.424 20.864 115.688 20.464C115.952 20.064 116.084 19.496 116.084 18.76C116.084 17.984 115.948 17.404 115.676 17.02C115.404 16.636 115.028 16.444 114.548 16.444ZM121.958 22.276C121.638 22.276 121.33 22.208 121.034 22.072C120.738 21.936 120.49 21.752 120.29 21.52V23.656C120.29 23.72 120.282 23.76 120.266 23.776C120.25 23.8 120.214 23.812 120.158 23.812H119.162C119.114 23.812 119.078 23.8 119.054 23.776C119.03 23.76 119.018 23.72 119.018 23.656V15.52C119.018 15.392 119.078 15.328 119.198 15.328H120.122C120.234 15.328 120.29 15.392 120.29 15.52V15.952C120.514 15.72 120.766 15.54 121.046 15.412C121.326 15.284 121.63 15.22 121.958 15.22C122.39 15.22 122.774 15.304 123.11 15.472C123.454 15.632 123.742 15.864 123.974 16.168C124.214 16.472 124.394 16.844 124.514 17.284C124.642 17.724 124.706 18.22 124.706 18.772C124.706 19.308 124.642 19.792 124.514 20.224C124.386 20.656 124.202 21.024 123.962 21.328C123.73 21.632 123.442 21.864 123.098 22.024C122.762 22.192 122.382 22.276 121.958 22.276ZM121.826 16.444C121.618 16.444 121.422 16.496 121.238 16.6C121.054 16.696 120.89 16.844 120.746 17.044C120.61 17.236 120.498 17.476 120.41 17.764C120.33 18.052 120.29 18.384 120.29 18.76C120.29 19.544 120.43 20.124 120.71 20.5C120.99 20.876 121.362 21.064 121.826 21.064C122.322 21.064 122.702 20.864 122.966 20.464C123.23 20.064 123.362 19.496 123.362 18.76C123.362 17.984 123.226 17.404 122.954 17.02C122.682 16.636 122.306 16.444 121.826 16.444ZM131.443 21.064C131.155 21.424 130.811 21.7 130.411 21.892C130.011 22.076 129.559 22.168 129.055 22.168C128.543 22.168 128.091 22.076 127.699 21.892C127.307 21.708 126.979 21.456 126.715 21.136C126.451 20.816 126.251 20.444 126.115 20.02C125.987 19.596 125.923 19.144 125.923 18.664C125.923 18.184 125.987 17.732 126.115 17.308C126.251 16.884 126.451 16.516 126.715 16.204C126.979 15.884 127.303 15.632 127.687 15.448C128.079 15.264 128.535 15.172 129.055 15.172C129.567 15.172 130.019 15.264 130.411 15.448C130.803 15.632 131.131 15.884 131.395 16.204C131.659 16.516 131.855 16.884 131.983 17.308C132.119 17.732 132.187 18.184 132.187 18.664C132.187 19.136 132.123 19.58 131.995 19.996C131.867 20.404 131.683 20.76 131.443 21.064ZM129.055 16.348C128.743 16.348 128.471 16.416 128.239 16.552C128.015 16.688 127.831 16.868 127.687 17.092C127.543 17.308 127.435 17.556 127.363 17.836C127.291 18.108 127.255 18.384 127.255 18.664C127.255 18.944 127.291 19.224 127.363 19.504C127.435 19.776 127.543 20.024 127.687 20.248C127.831 20.472 128.015 20.652 128.239 20.788C128.471 20.924 128.743 20.992 129.055 20.992C129.367 20.992 129.635 20.924 129.859 20.788C130.091 20.652 130.279 20.472 130.423 20.248C130.567 20.024 130.675 19.776 130.747 19.504C130.819 19.224 130.855 18.944 130.855 18.664C130.855 18.392 130.819 18.12 130.747 17.848C130.675 17.568 130.567 17.32 130.423 17.104C130.279 16.88 130.091 16.7 129.859 16.564C129.635 16.42 129.367 16.348 129.055 16.348ZM136.848 16.552C136.688 16.512 136.548 16.488 136.428 16.48C136.308 16.464 136.204 16.464 136.116 16.48C135.876 16.528 135.68 16.632 135.528 16.792C135.384 16.944 135.272 17.124 135.192 17.332C135.12 17.54 135.072 17.764 135.048 18.004C135.024 18.244 135.012 18.472 135.012 18.688V21.808C135.012 21.92 134.964 21.976 134.868 21.976H133.872C133.784 21.976 133.74 21.916 133.74 21.796V16.96C133.74 16.704 133.736 16.448 133.728 16.192C133.72 15.936 133.716 15.712 133.716 15.52C133.716 15.448 133.728 15.404 133.752 15.388C133.776 15.364 133.816 15.352 133.872 15.352H134.868C134.924 15.352 134.956 15.36 134.964 15.376C134.972 15.392 134.976 15.42 134.976 15.46V15.988C135.032 15.892 135.104 15.796 135.192 15.7C135.288 15.604 135.388 15.52 135.492 15.448C135.604 15.368 135.716 15.308 135.828 15.268C135.94 15.22 136.044 15.196 136.14 15.196C136.292 15.196 136.428 15.2 136.548 15.208C136.676 15.208 136.808 15.248 136.944 15.328C136.984 15.344 137.008 15.372 137.016 15.412C137.024 15.444 137.028 15.476 137.028 15.508V16.408C137.028 16.44 137.016 16.476 136.992 16.516C136.968 16.556 136.92 16.568 136.848 16.552ZM141.28 21.88C141.168 21.952 140.988 22.016 140.74 22.072C140.5 22.136 140.24 22.168 139.96 22.168C139.624 22.168 139.356 22.1 139.156 21.964C138.956 21.82 138.808 21.656 138.712 21.472C138.6 21.264 138.532 21.02 138.508 20.74C138.484 20.46 138.472 20.08 138.472 19.6V16.588H137.476C137.436 16.588 137.4 16.576 137.368 16.552C137.344 16.52 137.332 16.484 137.332 16.444V15.496C137.332 15.456 137.344 15.424 137.368 15.4C137.4 15.368 137.436 15.352 137.476 15.352H138.472V13.672C138.472 13.632 138.488 13.6 138.52 13.576C138.552 13.544 138.588 13.528 138.628 13.528H139.6C139.648 13.528 139.684 13.544 139.708 13.576C139.74 13.6 139.756 13.632 139.756 13.672V15.352H140.908C140.948 15.352 140.98 15.368 141.004 15.4C141.036 15.424 141.052 15.456 141.052 15.496V16.444C141.052 16.484 141.036 16.52 141.004 16.552C140.98 16.576 140.948 16.588 140.908 16.588H139.756V19.684C139.756 20.228 139.768 20.572 139.792 20.716C139.824 20.86 139.9 20.948 140.02 20.98C140.14 21.012 140.276 21.02 140.428 21.004C140.532 20.988 140.648 20.968 140.776 20.944C140.904 20.912 141.016 20.876 141.112 20.836C141.152 20.82 141.18 20.82 141.196 20.836C141.212 20.844 141.228 20.88 141.244 20.944L141.34 21.736C141.348 21.792 141.328 21.84 141.28 21.88ZM149.95 21.976C149.91 21.976 149.874 21.968 149.842 21.952C149.818 21.928 149.81 21.896 149.818 21.856V21.376C149.61 21.632 149.354 21.828 149.05 21.964C148.754 22.1 148.442 22.168 148.114 22.168C147.338 22.168 146.758 21.94 146.374 21.484C145.99 21.028 145.798 20.376 145.798 19.528V15.508C145.798 15.468 145.81 15.432 145.834 15.4C145.866 15.36 145.902 15.34 145.942 15.34H146.926C146.966 15.34 147.002 15.36 147.034 15.4C147.066 15.44 147.082 15.48 147.082 15.52V19.336C147.082 19.936 147.178 20.36 147.37 20.608C147.57 20.856 147.862 20.98 148.246 20.98C148.678 20.98 149.034 20.816 149.314 20.488C149.602 20.16 149.746 19.672 149.746 19.024V15.508C149.746 15.468 149.758 15.432 149.782 15.4C149.814 15.36 149.85 15.34 149.89 15.34H150.886C150.926 15.34 150.958 15.364 150.982 15.412C151.014 15.452 151.03 15.492 151.03 15.532V20.428C151.03 20.676 151.034 20.92 151.042 21.16C151.05 21.4 151.054 21.62 151.054 21.82C151.054 21.924 151.01 21.976 150.922 21.976H149.95ZM155.944 21.736C155.512 22.024 155 22.168 154.408 22.168C154.248 22.168 154.08 22.16 153.904 22.144C153.728 22.128 153.556 22.108 153.388 22.084C153.228 22.06 153.084 22.032 152.956 22C152.828 21.968 152.728 21.936 152.656 21.904C152.624 21.888 152.588 21.868 152.548 21.844C152.516 21.812 152.504 21.764 152.512 21.7L152.584 20.92C152.592 20.84 152.604 20.792 152.62 20.776C152.636 20.76 152.688 20.764 152.776 20.788C153.04 20.868 153.312 20.928 153.592 20.968C153.88 21 154.136 21.016 154.36 21.016C154.712 21.016 154.972 20.928 155.14 20.752C155.316 20.576 155.404 20.372 155.404 20.14C155.404 20.012 155.36 19.884 155.272 19.756C155.184 19.62 155.036 19.484 154.828 19.348C154.612 19.22 154.388 19.092 154.156 18.964C153.924 18.828 153.696 18.696 153.472 18.568C153.216 18.416 153 18.216 152.824 17.968C152.656 17.712 152.572 17.432 152.572 17.128C152.572 16.792 152.632 16.504 152.752 16.264C152.872 16.016 153.032 15.812 153.232 15.652C153.432 15.484 153.66 15.364 153.916 15.292C154.18 15.212 154.456 15.172 154.744 15.172C154.896 15.172 155.052 15.18 155.212 15.196C155.38 15.212 155.54 15.236 155.692 15.268C155.852 15.292 155.992 15.324 156.112 15.364C156.24 15.396 156.336 15.432 156.4 15.472C156.44 15.496 156.46 15.52 156.46 15.544C156.468 15.56 156.468 15.588 156.46 15.628L156.388 16.396C156.38 16.484 156.36 16.536 156.328 16.552C156.296 16.56 156.236 16.556 156.148 16.54C155.996 16.484 155.824 16.432 155.632 16.384C155.52 16.368 155.4 16.352 155.272 16.336C155.152 16.32 155 16.312 154.816 16.312C154.488 16.312 154.256 16.388 154.12 16.54C153.984 16.692 153.916 16.876 153.916 17.092C153.916 17.22 153.992 17.356 154.144 17.5C154.296 17.644 154.488 17.776 154.72 17.896C154.968 18.016 155.196 18.14 155.404 18.268C155.62 18.396 155.78 18.5 155.884 18.58C156.172 18.788 156.388 19.016 156.532 19.264C156.676 19.504 156.748 19.796 156.748 20.14C156.748 20.812 156.48 21.344 155.944 21.736Z" fill="#FC4062"/>
<path d="M80.3077 20.0001L78 17.6924M80.3077 20.0001C81.3822 19.5914 82.413 19.076 83.3846 18.4616M80.3077 20.0001V23.8462C80.3077 23.8462 82.6385 23.4231 83.3846 22.3077C84.2154 21.0616 83.3846 18.4616 83.3846 18.4616M78 17.6924C78.4093 16.6304 78.9248 15.6125 79.5385 14.654C80.4348 13.2209 81.6828 12.041 83.1638 11.2264C84.6449 10.4118 86.3097 9.98971 88 10.0002C88 12.0925 87.4 15.7693 83.3846 18.4616M78 17.6924H74.1538C74.1538 17.6924 74.5769 15.3617 75.6923 14.6155C76.9385 13.7848 79.5385 14.6155 79.5385 14.6155M74.5385 21.1539C73.3846 22.1231 73 25 73 25C73 25 75.8769 24.6154 76.8462 23.4616C77.3923 22.8154 77.3846 21.8231 76.7769 21.2231C76.4779 20.9378 76.0841 20.7729 75.6709 20.7601C75.2578 20.7473 74.8545 20.8875 74.5385 21.1539Z" stroke="#FC4062" stroke-width="1.5" stroke-linecap="round" stroke-linejoin="round"/>
</svg>
