<svg width="329" height="198" viewBox="0 0 329 198" fill="none" xmlns="http://www.w3.org/2000/svg">
<path d="M155.923 3.27203L12.8367 80.3187C8.62587 82.5861 6 86.9823 6 91.7648V245.5C6 252.68 11.8203 258.5 19 258.5H309.5C316.68 258.5 322.5 252.68 322.5 245.5V91.8691C322.5 87.0316 319.814 82.5942 315.528 80.3511L168.115 3.20024C164.291 1.19901 159.723 1.22591 155.923 3.27203Z" fill="#B7455A"/>
<g filter="url(#filter0_d_933_807)">
<path d="M157.235 149.673L8.78638 86.1915C7.46682 85.6273 6 86.5953 6 88.0305V235C6 236.105 6.89543 237 8 237H320.5C321.605 237 322.5 236.105 322.5 235V86.4658C322.5 85.0477 321.065 84.0801 319.75 84.6115L158.771 149.688C158.278 149.888 157.725 149.882 157.235 149.673Z" fill="#FF9EB0"/>
</g>
<path d="M310.159 242.5H19.0106C14.0458 242.5 11.5634 242.5 11.1078 241.132C10.6521 239.764 12.6389 238.276 16.6123 235.299L134.327 147.11C145.995 138.368 151.829 133.998 158.595 133.866C165.361 133.734 171.361 137.874 183.361 146.153L312.431 235.208C316.762 238.196 318.927 239.69 318.489 241.095C318.051 242.5 315.421 242.5 310.159 242.5Z" fill="#FFDDE3"/>
<defs>
<filter id="filter0_d_933_807" x="0" y="74.4639" width="328.5" height="164.536" filterUnits="userSpaceOnUse" color-interpolation-filters="sRGB">
<feFlood flood-opacity="0" result="BackgroundImageFix"/>
<feColorMatrix in="SourceAlpha" type="matrix" values="0 0 0 0 0 0 0 0 0 0 0 0 0 0 0 0 0 0 127 0" result="hardAlpha"/>
<feOffset dy="-4"/>
<feGaussianBlur stdDeviation="3"/>
<feComposite in2="hardAlpha" operator="out"/>
<feColorMatrix type="matrix" values="0 0 0 0 0 0 0 0 0 0 0 0 0 0 0 0 0 0 0.2 0"/>
<feBlend mode="normal" in2="BackgroundImageFix" result="effect1_dropShadow_933_807"/>
<feBlend mode="normal" in="SourceGraphic" in2="effect1_dropShadow_933_807" result="shape"/>
</filter>
</defs>
</svg>
