<svg width="287" height="606" viewBox="0 0 287 606" fill="none" xmlns="http://www.w3.org/2000/svg">
<g filter="url(#filter0_d_933_823)">
<rect x="4" width="279" height="575" rx="5" fill="#F8F3F3"/>
</g>
<path d="M25 66H262M25 81H262M25 95H262M25 110H262M25 125H262M25 140H262M25 154H262M25 169H262M25 184H262M25 199H262M25 213H262M25 228H262M25 243H262M25 258H262M25 272H262M25 287H262M25 301H262M25 316H262M25 330H262M25 345H262M25 360H262M25 375H262M25 389H262M25 404H262" stroke="#DADADA"/>
<path d="M134.254 599.408L134.422 598.386H134.87C135.785 598.386 136.517 598.223 137.068 597.896C137.619 597.56 137.894 597.107 137.894 596.538C137.894 596.109 137.745 595.768 137.446 595.516C137.157 595.255 136.783 595.124 136.326 595.124C135.897 595.124 135.528 595.194 135.22 595.334C134.912 595.465 134.637 595.619 134.394 595.796L133.904 594.844C134.231 594.611 134.604 594.419 135.024 594.27C135.453 594.111 135.939 594.032 136.48 594.032C137.049 594.032 137.535 594.139 137.936 594.354C138.347 594.569 138.659 594.853 138.874 595.208C139.089 595.553 139.196 595.927 139.196 596.328C139.196 596.981 139.005 597.513 138.622 597.924C138.239 598.325 137.679 598.638 136.942 598.862C137.53 599.067 137.983 599.371 138.3 599.772C138.617 600.173 138.776 600.649 138.776 601.2C138.776 601.797 138.622 602.32 138.314 602.768C138.006 603.216 137.581 603.561 137.04 603.804C136.508 604.047 135.897 604.168 135.206 604.168C134.674 604.168 134.17 604.098 133.694 603.958C133.227 603.809 132.831 603.608 132.504 603.356L133.246 602.362C133.479 602.558 133.759 602.721 134.086 602.852C134.413 602.983 134.786 603.048 135.206 603.048C135.841 603.048 136.368 602.894 136.788 602.586C137.208 602.278 137.418 601.835 137.418 601.256C137.418 600.743 137.217 600.309 136.816 599.954C136.415 599.59 135.799 599.408 134.968 599.408H134.254ZM140.395 604.49L146.247 593.178L147.227 593.682L141.375 604.994L140.395 604.49ZM150.141 603.02C150.711 603.02 151.247 602.726 151.751 602.138C152.255 601.541 152.61 600.598 152.815 599.31C152.162 599.917 151.448 600.22 150.673 600.22C150.188 600.22 149.74 600.113 149.329 599.898C148.919 599.674 148.587 599.357 148.335 598.946C148.093 598.535 147.971 598.045 147.971 597.476C147.971 596.832 148.121 596.253 148.419 595.74C148.718 595.217 149.129 594.802 149.651 594.494C150.174 594.186 150.762 594.032 151.415 594.032C152.321 594.032 153.035 594.317 153.557 594.886C153.809 595.157 154.001 595.474 154.131 595.838C154.262 596.202 154.327 596.636 154.327 597.14C154.327 598.017 154.243 598.876 154.075 599.716C153.917 600.547 153.665 601.298 153.319 601.97C152.983 602.642 152.54 603.179 151.989 603.58C151.448 603.972 150.799 604.168 150.043 604.168C149.502 604.168 149.012 604.065 148.573 603.86C148.144 603.655 147.78 603.393 147.481 603.076L148.447 602.18C148.681 602.441 148.933 602.647 149.203 602.796C149.483 602.945 149.796 603.02 150.141 603.02ZM153.025 597.308C153.025 596.608 152.867 596.076 152.549 595.712C152.241 595.339 151.826 595.152 151.303 595.152C150.93 595.152 150.589 595.25 150.281 595.446C149.973 595.642 149.726 595.908 149.539 596.244C149.362 596.58 149.273 596.963 149.273 597.392C149.273 597.933 149.423 598.367 149.721 598.694C150.029 599.021 150.435 599.184 150.939 599.184C151.294 599.184 151.649 599.1 152.003 598.932C152.367 598.755 152.694 598.507 152.983 598.19C153.002 598.022 153.011 597.873 153.011 597.742C153.021 597.611 153.025 597.467 153.025 597.308Z" fill="white"/>
<defs>
<filter id="filter0_d_933_823" x="0" y="0" width="287" height="583" filterUnits="userSpaceOnUse" color-interpolation-filters="sRGB">
<feFlood flood-opacity="0" result="BackgroundImageFix"/>
<feColorMatrix in="SourceAlpha" type="matrix" values="0 0 0 0 0 0 0 0 0 0 0 0 0 0 0 0 0 0 127 0" result="hardAlpha"/>
<feOffset dy="4"/>
<feGaussianBlur stdDeviation="2"/>
<feComposite in2="hardAlpha" operator="out"/>
<feColorMatrix type="matrix" values="0 0 0 0 0 0 0 0 0 0 0 0 0 0 0 0 0 0 0.25 0"/>
<feBlend mode="normal" in2="BackgroundImageFix" result="effect1_dropShadow_933_823"/>
<feBlend mode="normal" in="SourceGraphic" in2="effect1_dropShadow_933_823" result="shape"/>
</filter>
</defs>
</svg>
