<svg width="275" height="6" viewBox="0 0 275 6" fill="none" xmlns="http://www.w3.org/2000/svg">
<path d="M0.333333 3C0.333333 4.47276 1.52724 5.66667 3 5.66667C4.47276 5.66667 5.66667 4.47276 5.66667 3C5.66667 1.52724 4.47276 0.333333 3 0.333333C1.52724 0.333333 0.333333 1.52724 0.333333 3ZM269.333 3C269.333 4.47276 270.527 5.66667 272 5.66667C273.473 5.66667 274.667 4.47276 274.667 3C274.667 1.52724 273.473 0.333333 272 0.333333C270.527 0.333333 269.333 1.52724 269.333 3ZM3 3.5H272V2.5H3V3.5Z" fill="#B0B0B0"/>
</svg>
