<svg width="10" height="13" viewBox="0 0 10 13" fill="none" xmlns="http://www.w3.org/2000/svg">
<path d="M7.93284 11.6496L1.62024 7.24203C1.27136 6.99843 1.09692 6.87663 1.03833 6.71773C0.987223 6.57912 0.987223 6.42088 1.03833 6.28227C1.09692 6.12337 1.27136 6.00157 1.62024 5.75797L7.93284 1.35039C8.28298 1.10592 8.45805 0.983684 8.60173 1.00175C8.72706 1.01751 8.84094 1.0967 8.91504 1.21961C9 1.36052 9 1.60449 9 2.09242L9 10.9076C9 11.3955 9 11.6395 8.91505 11.7804C8.84095 11.9033 8.72706 11.9825 8.60173 11.9983C8.45805 12.0163 8.28298 11.8941 7.93284 11.6496Z" fill="white" stroke="white" stroke-width="2" stroke-linecap="round" stroke-linejoin="round"/>
</svg>
