<svg width="28" height="28" viewBox="0 0 28 28" fill="none" xmlns="http://www.w3.org/2000/svg">
<path d="M23.3333 24.4999V15.1666C23.3333 14.5477 23.0875 13.9543 22.6499 13.5167C22.2123 13.0791 21.6188 12.8333 21 12.8333H7.00001C6.38117 12.8333 5.78767 13.0791 5.35009 13.5167C4.9125 13.9543 4.66667 14.5477 4.66667 15.1666V24.4999" stroke="white" stroke-width="2" stroke-linecap="round" stroke-linejoin="round"/>
<path d="M4.66667 18.6666C4.66667 18.6666 5.25 17.5 7 17.5C8.75 17.5 9.91667 19.8333 11.6667 19.8333C13.4167 19.8333 14.5833 17.5 16.3333 17.5C18.0833 17.5 19.25 19.8333 21 19.8333C22.75 19.8333 23.3333 18.6666 23.3333 18.6666M2.33334 24.5H25.6667M8.16667 9.33329V11.6666M14 9.33329V11.6666M19.8333 9.33329V11.6666M8.16667 4.66663H8.17834M14 4.66663H14.0117M19.8333 4.66663H19.845" stroke="white" stroke-width="2" stroke-linecap="round" stroke-linejoin="round"/>
</svg>
