<svg width="134" height="212" viewBox="0 0 134 212" fill="none" xmlns="http://www.w3.org/2000/svg">
<g filter="url(#filter0_d_625_858)">
<path d="M29.6577 116.39L164.211 46.3934L183.179 81.8214L48.623 151.818L29.6577 116.39Z" fill="#FFCE31"/>
<path d="M29.261 117.003L8.35533 144.156L14.0419 154.703L48.2164 152.16L29.261 117.003Z" fill="#FED0AC"/>
<path d="M4.4375 149.151C1.50038 152.965 3.10574 155.597 7.98239 155.297L24.6577 154.227L14.7015 136.187L4.4375 149.151Z" fill="#333333"/>
<path d="M29.6864 116.346L147.283 55.1629L153.582 66.92L35.9858 128.103L29.6864 116.346Z" fill="#FFDF85"/>
<path d="M42.3942 140.063L159.991 78.8804L166.29 90.6375L48.6936 151.82L42.3942 140.063Z" fill="#FF8736"/>
</g>
<defs>
<filter id="filter0_d_625_858" x="-2" y="-30" width="247.004" height="247.004" filterUnits="userSpaceOnUse" color-interpolation-filters="sRGB">
<feFlood flood-opacity="0" result="BackgroundImageFix"/>
<feColorMatrix in="SourceAlpha" type="matrix" values="0 0 0 0 0 0 0 0 0 0 0 0 0 0 0 0 0 0 127 0" result="hardAlpha"/>
<feOffset dx="2" dy="2"/>
<feGaussianBlur stdDeviation="2"/>
<feComposite in2="hardAlpha" operator="out"/>
<feColorMatrix type="matrix" values="0 0 0 0 0 0 0 0 0 0 0 0 0 0 0 0 0 0 0.25 0"/>
<feBlend mode="normal" in2="BackgroundImageFix" result="effect1_dropShadow_625_858"/>
<feBlend mode="normal" in="SourceGraphic" in2="effect1_dropShadow_625_858" result="shape"/>
</filter>
</defs>
</svg>
