<svg width="182" height="124" viewBox="0 0 182 124" fill="none" xmlns="http://www.w3.org/2000/svg">
<g filter="url(#filter0_d_640_664)">
<path d="M168.483 115.775L12 115.775C8.13401 115.775 5 112.641 5 108.775L5 11.0002C5 7.13418 8.13402 4.00018 12 4.00018L168.483 4.00018C172.349 4.00018 175.483 7.13419 175.483 11.0002V108.775C175.483 112.641 172.349 115.775 168.483 115.775Z" fill="#B8BDBE" stroke="#8F9799" stroke-width="3"/>
<path d="M150.783 91.7485L29.2817 91.7485C22.102 91.7485 16.2817 85.9283 16.2817 78.7486L16.2817 29.1178C16.2817 21.9381 22.102 16.1178 29.2817 16.1178L150.783 16.1178C157.962 16.1178 163.783 21.9381 163.783 29.1178V78.7485C163.783 85.9282 157.962 91.7485 150.783 91.7485Z" fill="url(#paint0_linear_640_664)" stroke="#8F9799" stroke-width="3"/>
<path d="M36.0439 100.499L28.7316 114.706L152.415 114.706L144.894 100.499H36.0439Z" fill="#9C9C9C"/>
<rect x="47.2028" y="65.4241" width="25.071" height="85.6591" rx="12.5355" transform="rotate(-90 47.2028 65.4241)" fill="black"/>
<circle cx="60.9919" cy="52.8885" r="8.77484" transform="rotate(-90 60.9919 52.8885)" fill="#D9D9D9"/>
<ellipse cx="119.491" cy="52.6796" rx="8.98376" ry="8.77484" transform="rotate(-90 119.491 52.6796)" fill="#D9D9D9"/>
<rect x="73.1094" y="60.8276" width="16.2961" height="34.2637" transform="rotate(-90 73.1094 60.8276)" fill="#D9D9D9"/>
<circle cx="10.6791" cy="109.444" r="2.08925" transform="rotate(-90 10.6791 109.444)" fill="white"/>
<circle cx="10.9341" cy="9.213" r="2.08925" transform="rotate(-90 10.9341 9.213)" fill="white"/>
<circle cx="169.633" cy="110.552" r="2.08925" transform="rotate(-90 169.633 110.552)" fill="white"/>
<circle cx="169.632" cy="9.43224" r="2.08925" transform="rotate(-90 169.632 9.43224)" fill="white"/>
</g>
<defs>
<filter id="filter0_d_640_664" x="0.5" y="0.500244" width="181.483" height="122.775" filterUnits="userSpaceOnUse" color-interpolation-filters="sRGB">
<feFlood flood-opacity="0" result="BackgroundImageFix"/>
<feColorMatrix in="SourceAlpha" type="matrix" values="0 0 0 0 0 0 0 0 0 0 0 0 0 0 0 0 0 0 127 0" result="hardAlpha"/>
<feOffset dx="1" dy="2"/>
<feGaussianBlur stdDeviation="2"/>
<feComposite in2="hardAlpha" operator="out"/>
<feColorMatrix type="matrix" values="0 0 0 0 0 0 0 0 0 0 0 0 0 0 0 0 0 0 0.1 0"/>
<feBlend mode="normal" in2="BackgroundImageFix" result="effect1_dropShadow_640_664"/>
<feBlend mode="normal" in="SourceGraphic" in2="effect1_dropShadow_640_664" result="shape"/>
</filter>
<linearGradient id="paint0_linear_640_664" x1="90.2411" y1="80.2577" x2="90.2411" y2="79.6309" gradientUnits="userSpaceOnUse">
<stop offset="0.0890938" stop-color="#F2E56E"/>
<stop offset="1" stop-color="#FF92A5"/>
</linearGradient>
</defs>
</svg>
